<svg width="50" height="50" viewBox="0 0 50 50" fill="none" xmlns="http://www.w3.org/2000/svg">
<path d="M47.7901 23.0523L38.1416 31.323L41.0812 43.6918C41.2434 44.3632 41.2016 45.0673 40.9612 45.7152C40.7207 46.3631 40.2924 46.9256 39.7303 47.3318C39.1682 47.7379 38.4975 47.9695 37.803 47.9972C37.1084 48.0249 36.4212 47.8475 35.8282 47.4874L25.0004 40.8674L14.1663 47.4874C13.5733 47.8454 12.8869 48.0211 12.1936 47.9924C11.5002 47.9637 10.831 47.7318 10.27 47.326C9.70906 46.9202 9.28152 46.3586 9.04123 45.7119C8.80094 45.0652 8.75864 44.3623 8.91965 43.6918L11.8699 31.323L2.22147 23.0523C1.6968 22.6019 1.31735 22.0078 1.13051 21.3444C0.943669 20.681 0.957714 19.9776 1.17089 19.3221C1.38407 18.6665 1.78693 18.0879 2.32917 17.6585C2.8714 17.229 3.52898 16.9678 4.21977 16.9074L16.87 15.8935L21.75 4.16162C22.0141 3.52224 22.4637 2.97533 23.0415 2.59043C23.6194 2.20552 24.2994 2 24.9951 2C25.6908 2 26.3708 2.20552 26.9486 2.59043C27.5265 2.97533 27.976 3.52224 28.2402 4.16162L33.118 15.8935L45.7682 16.9074C46.4604 16.9655 47.1199 17.2253 47.6641 17.6542C48.2083 18.083 48.613 18.6619 48.8275 19.3182C49.042 19.9745 49.0568 20.6791 48.87 21.3438C48.6831 22.0084 48.303 22.6035 47.7772 23.0545L47.7901 23.0523Z" fill="url(#paint0_radial_5607_6350)"/>
<path d="M13.1572 40.5996L13.8948 37.5074L14.2636 35.9613M15.0012 32.8691L15.1855 32.096" stroke="white" stroke-width="2" stroke-linecap="round"/>
<path d="M45.7682 16.9074C46.4604 16.9655 47.1199 17.2253 47.6641 17.6542C48.2083 18.083 48.613 18.6619 48.8275 19.3182C49.042 19.9745 49.0568 20.6791 48.87 21.3438C48.6837 22.0063 48.3054 22.5998 47.7822 23.0502C47.7808 23.0514 47.7819 23.0537 47.7837 23.0534C47.7855 23.0531 47.7866 23.0554 47.7852 23.0566L39.0679 30.529C38.4991 31.0166 38.2505 31.7811 38.4237 32.5099L41.0812 43.6918C41.2434 44.3632 41.2016 45.0673 40.9612 45.7152C40.7207 46.3631 40.2924 46.9256 39.7303 47.3318C39.1682 47.7379 38.4975 47.9695 37.803 47.9972C37.1084 48.0249 36.4212 47.8475 35.8282 47.4874L26.0434 41.5051C25.4031 41.1136 24.5977 41.1135 23.9573 41.5048L14.1663 47.4874C13.5733 47.8454 12.8869 48.0211 12.1936 47.9924C11.5002 47.9637 10.831 47.7318 10.27 47.326C9.70906 46.9202 9.28152 46.3586 9.04123 45.7119C8.80094 45.0652 8.75864 44.3623 8.91965 43.6918L11.5866 32.5108C11.7606 31.7815 11.512 31.0162 10.9428 30.5283L2.22147 23.0523C1.6968 22.6019 1.31735 22.0078 1.13051 21.3444C0.943669 20.681 0.957714 19.9776 1.17089 19.3221C1.38407 18.6665 1.78693 18.0879 2.32917 17.6585C2.8714 17.229 3.52898 16.9678 4.21977 16.9074L15.6523 15.9911C16.3999 15.9312 17.0511 15.4581 17.3391 14.7656L21.75 4.16162C22.0141 3.52224 22.4637 2.97533 23.0415 2.59043C23.6193 2.20552 24.2994 2 24.9951 2C25.6908 2 26.3708 2.20552 26.9486 2.59043C27.5265 2.97533 27.976 3.52224 28.2402 4.16162L32.6489 14.7653C32.9369 15.4579 33.5882 15.9312 34.3359 15.9911L34.6993 16.0202L36.2806 16.147M41.0244 16.5272L42.2104 16.6222" stroke="black" stroke-width="2" stroke-linecap="round"/>
<defs>
<radialGradient id="paint0_radial_5607_6350" cx="0" cy="0" r="1" gradientUnits="userSpaceOnUse" gradientTransform="translate(11 31.5) rotate(-16.1645) scale(35.9201 37.4818)">
<stop offset="0.420874" stop-color="#FFE571"/>
<stop offset="0.423549" stop-color="#FFA81E"/>
</radialGradient>
</defs>
</svg>
