<svg width="32" height="32" viewBox="0 0 32 32" fill="none" xmlns="http://www.w3.org/2000/svg">
<path d="M15.6173 26.6073L14.4713 29.2313C14.0306 30.24 12.6353 30.24 12.1946 29.2313L11.0486 26.6073C10.0293 24.272 8.19393 22.4133 5.9046 21.3973L2.75127 19.9973C1.7486 19.552 1.7486 18.094 2.75127 17.6487L5.8066 16.2927C8.1546 15.2507 10.0226 13.3227 11.0246 10.908L12.1853 8.11132C12.6159 7.07332 14.0499 7.07332 14.4806 8.11132L15.6413 10.908C16.6433 13.3227 18.5113 15.2507 20.8593 16.2927L23.9146 17.6487C24.9173 18.094 24.9173 19.552 23.9146 19.9973L20.7613 21.3973C18.4719 22.4133 16.6366 24.2727 15.6173 26.6073Z" fill="url(#paint0_radial_5765_10160)"/>
<path d="M25.6154 11.4987L25.2867 12.2527C25.046 12.8047 24.282 12.8047 24.0414 12.2527L23.7127 11.4987C23.1267 10.1547 22.07 9.08466 20.7527 8.49866L19.7394 8.04866C19.1914 7.80533 19.1914 7.00866 19.7394 6.76533L20.696 6.33999C22.0474 5.73933 23.1227 4.63 23.6987 3.24L24.0367 2.42533C24.272 1.85733 25.0574 1.85733 25.2927 2.42533L25.6307 3.24C26.2067 4.63 27.282 5.73933 28.6334 6.33999L29.59 6.76533C30.138 7.00866 30.138 7.80533 29.59 8.04866L28.5767 8.49866C27.258 9.08466 26.202 10.1547 25.6154 11.4987Z" fill="white"/>
<defs>
<radialGradient id="paint0_radial_5765_10160" cx="0" cy="0" r="1" gradientTransform="matrix(-11 9.5 -10.0014 -12.1208 19.5 14.5)" gradientUnits="userSpaceOnUse">
<stop stop-color="#FFE571"/>
<stop offset="0.966379" stop-color="#FED745"/>
</radialGradient>
</defs>
</svg>
