<svg width="32" height="32" viewBox="0 0 32 32" fill="none" xmlns="http://www.w3.org/2000/svg">
<path d="M28.57 3.43775C27.9033 2.75642 26.9166 2.50442 25.9966 2.77109L4.54331 8.96975C3.57264 9.23909 2.88464 10.0084 2.69931 10.9844C2.50997 11.9791 3.17131 13.2431 4.03531 13.7711L10.7433 17.8671C11.4313 18.2884 12.3193 18.1831 12.8886 17.6124L20.57 9.93109C20.9566 9.52975 21.5966 9.52975 21.9833 9.93109C22.37 10.3164 22.37 10.9444 21.9833 11.3444L14.2886 19.0258C13.718 19.5964 13.6113 20.4818 14.0313 21.1711L18.13 27.9044C18.61 28.7031 19.4366 29.1578 20.3433 29.1578C20.45 29.1578 20.57 29.1578 20.6766 29.1431C21.7166 29.0111 22.5433 28.3031 22.85 27.3031L29.21 6.01109C29.49 5.10442 29.2366 4.11775 28.57 3.43775" fill="url(#paint0_linear_5765_10187)"/>
<path d="M11.1872 25.5229C11.5779 25.1335 12.2116 25.1335 12.6022 25.5229C12.9914 25.9135 12.9915 26.5473 12.6022 26.9379L10.781 28.7572C10.5863 28.9532 10.3299 29.0512 10.0739 29.0512C9.81792 29.0512 9.56156 28.9532 9.36689 28.7572C8.97655 28.3666 8.9765 27.7347 9.36689 27.3442L11.1872 25.5229ZM10.1423 20.4721C10.533 20.0828 11.1667 20.0828 11.5573 20.4721C11.9465 20.8628 11.9466 21.4965 11.5573 21.8871L9.73603 23.7065C9.54138 23.9024 9.28499 24.0004 9.029 24.0004C8.773 24.0004 8.51664 23.9025 8.32197 23.7065C7.93166 23.3158 7.93153 22.6839 8.32197 22.2934L10.1423 20.4721ZM5.12763 18.8822C5.51826 18.4931 6.15106 18.4931 6.5417 18.8822C6.93103 19.2729 6.93103 19.9066 6.5417 20.2973L4.72041 22.1166C4.52583 22.3125 4.27024 22.4105 4.01435 22.4106C3.75835 22.4106 3.50199 22.3126 3.30732 22.1166C2.91682 21.7259 2.91671 21.0941 3.30732 20.7035L5.12763 18.8822Z" fill="white"/>
<defs>
<linearGradient id="paint0_linear_5765_10187" x1="7.5" y1="23" x2="29" y2="4.50002" gradientUnits="userSpaceOnUse">
<stop stop-color="#34E7FF"/>
<stop offset="1" stop-color="#77EFFF"/>
</linearGradient>
</defs>
</svg>
