<svg width="32" height="32" viewBox="0 0 32 32" fill="none" xmlns="http://www.w3.org/2000/svg">
<path d="M26.9999 13.0003C27.0042 14.6673 26.6276 16.3133 25.8989 17.8127C25.1701 19.312 24.1085 20.625 22.7949 21.6515C22.5493 21.8398 22.35 22.0817 22.2122 22.3588C22.0744 22.6359 22.0018 22.9408 21.9999 23.2503V24.0003C21.9999 24.5307 21.7892 25.0394 21.4141 25.4145C21.0391 25.7895 20.5304 26.0003 19.9999 26.0003H11.9999C11.4695 26.0003 10.9608 25.7895 10.5857 25.4145C10.2106 25.0394 9.99992 24.5307 9.99992 24.0003V23.2503C9.99971 22.9445 9.92941 22.6429 9.79441 22.3685C9.65941 22.0942 9.4633 21.8545 9.22117 21.6678C7.91092 20.6473 6.84998 19.3422 6.11864 17.8512C5.38731 16.3601 5.00475 14.7222 4.99992 13.0615C4.96742 7.10401 9.78242 2.14276 15.7349 2.00026C17.2016 1.96492 18.6605 2.22333 20.0259 2.76029C21.3912 3.29724 22.6353 4.10189 23.685 5.12688C24.7347 6.15186 25.5687 7.37647 26.138 8.72862C26.7073 10.0808 27.0003 11.5332 26.9999 13.0003ZM22.9862 11.8328C22.7269 10.3844 22.03 9.05022 20.9895 8.00989C19.9489 6.96955 18.6146 6.27301 17.1662 6.01401C17.0367 5.99218 16.9041 5.99607 16.7761 6.02547C16.6481 6.05486 16.5271 6.10918 16.4201 6.18532C16.3131 6.26147 16.2221 6.35794 16.1524 6.46925C16.0826 6.58055 16.0355 6.7045 16.0137 6.83401C15.9918 6.96353 15.9957 7.09608 16.0251 7.22409C16.0545 7.3521 16.1088 7.47307 16.185 7.58009C16.2611 7.68711 16.3576 7.77808 16.4689 7.84782C16.5802 7.91755 16.7042 7.96468 16.8337 7.98651C18.9049 8.33526 20.6624 10.0928 21.0137 12.1678C21.0532 12.4007 21.174 12.612 21.3545 12.7644C21.535 12.9168 21.7637 13.0004 21.9999 13.0003C22.0564 12.9999 22.1128 12.9953 22.1687 12.9865C22.4301 12.9419 22.663 12.7953 22.8163 12.5789C22.9696 12.3626 23.0307 12.0942 22.9862 11.8328Z" fill="url(#paint0_linear_5765_10168)"/>
<path d="M22 29.0002C22 29.2655 21.8946 29.5198 21.7071 29.7074C21.5196 29.8949 21.2652 30.0002 21 30.0002H11C10.7348 30.0002 10.4804 29.8949 10.2929 29.7074C10.1054 29.5198 10 29.2655 10 29.0002C10 28.735 10.1054 28.4807 10.2929 28.2931C10.4804 28.1056 10.7348 28.0002 11 28.0002H21C21.2652 28.0002 21.5196 28.1056 21.7071 28.2931C21.8946 28.4807 22 28.735 22 29.0002Z" fill="white"/>
<defs>
<linearGradient id="paint0_linear_5765_10168" x1="26.9991" y1="2.60136" x2="3.45052" y2="9.32919" gradientUnits="userSpaceOnUse">
<stop stop-color="#FF73E1"/>
<stop offset="1" stop-color="#FFABE7"/>
</linearGradient>
</defs>
</svg>
